<?xml version="1.0" encoding="UTF-8"?>
<svg version="1.1" xmlns="http://www.w3.org/2000/svg" width="551" height="488">
<path d="M0 0 C1.0636377 0.16628906 2.12727539 0.33257812 3.22314453 0.50390625 C33.21852691 5.32531018 62.16489218 14.69526549 89.01513672 28.94775391 C90.37990261 29.67126449 91.74899652 30.38665114 93.12158203 31.09521484 C120.35778488 45.18290597 145.20328069 65.73514417 164 90 C165.12535156 91.43472656 165.12535156 91.43472656 166.2734375 92.8984375 C181.75636384 113.03152601 193.25566347 135.86084362 201 160 C201.61101562 161.86205078 201.61101562 161.86205078 202.234375 163.76171875 C216.49955051 211.87925306 209.86220997 264.71069812 186.14086914 308.56958008 C180.086782 319.38893318 172.99808781 329.53345757 165 339 C164.54866699 339.54011719 164.09733398 340.08023437 163.63232422 340.63671875 C155.09016014 350.85011453 146.22344813 360.42862999 136 369 C134.98292969 369.86818359 134.98292969 369.86818359 133.9453125 370.75390625 C120.76009955 381.68075228 106.20776634 391.1484981 91 399 C90.29504395 399.36544922 89.59008789 399.73089844 88.86376953 400.10742188 C59.20837888 415.27352904 26.78619932 423.8861596 -6 429 C-7.04607422 429.16516113 -8.09214844 429.33032227 -9.16992188 429.50048828 C-46.15503163 435.08521675 -85.1407451 433.43947446 -121.515625 424.734375 C-124.49029868 424.10742584 -126.98113157 423.83618543 -130 424 C-130 423.34 -130 422.68 -130 422 C-130.804375 421.87044922 -130.804375 421.87044922 -131.625 421.73828125 C-135.82949658 420.98451459 -139.89357041 420.07517737 -143.9453125 418.71875 C-144.63496094 418.48889404 -145.32460937 418.25903809 -146.03515625 418.0222168 C-147.39949549 417.55888337 -148.7592459 417.08174477 -150.11328125 416.58911133 C-159.99767262 413.23882548 -167.51661727 417.22465832 -176.5625 421.3125 C-178.53665767 422.18756584 -180.51284725 423.05793521 -182.48913574 423.92817688 C-183.93501421 424.56500708 -185.38039269 425.20297344 -186.82531738 425.84196472 C-210.72166114 436.4014027 -234.77149506 446.70238532 -259.05950928 456.33010864 C-260.58288636 456.93531142 -262.10432042 457.54543208 -263.62359619 458.16085815 C-277.94985901 463.94707541 -277.94985901 463.94707541 -286 463 C-286.33 462.67 -286.66 462.34 -287 462 C-286.51573479 455.26496258 -285.15543766 448.95145939 -283.48828125 442.421875 C-282.97508536 440.36712951 -282.46198683 438.31235971 -281.94897461 436.25756836 C-281.68132294 435.19440399 -281.41367126 434.13123962 -281.13790894 433.03585815 C-271.15278854 393.6691 -271.15278854 393.6691 -265.25048828 353.53271484 C-265.02426902 351.24538674 -264.72217377 348.98264081 -264.40234375 346.70703125 C-263.7951528 339.97209714 -264.57444788 335.86319115 -268.68994141 330.59887695 C-270.28719788 328.70591557 -271.92019935 326.85049293 -273.56640625 325 C-295.10521645 300.64171874 -307.33685164 264.9034665 -311 233 C-311.11085938 232.04480469 -311.22171875 231.08960938 -311.3359375 230.10546875 C-312.16405337 221.74597479 -312.18464445 213.38953681 -312 205 C-311.98743164 204.33371582 -311.97486328 203.66743164 -311.96191406 202.98095703 C-311.11237942 167.32650827 -298.94822309 131.58727848 -278.56640625 102.390625 C-276.86178234 100.01106242 -276.86178234 100.01106242 -276 97 C-274.86128625 95.86128625 -273.71777631 94.72708663 -272.5546875 93.61328125 C-270.73171345 91.72160215 -269.16911094 89.70394076 -267.5625 87.625 C-254.85236158 71.55746653 -240.0515853 58.1821382 -223.52124023 46.16992188 C-221.85248865 44.93878656 -221.85248865 44.93878656 -220 43 C-218.67103184 42.32467352 -217.33646312 41.66037001 -216 41 C-214.29038873 39.96224322 -212.58126972 38.92365369 -210.8762207 37.87841797 C-179.01166353 18.5252136 -143.57999579 6.04368222 -106.75195312 0.421875 C-104.94114649 0.14427796 -103.13238015 -0.14703273 -101.32617188 -0.453125 C-68.72904746 -5.88988479 -32.57027684 -5.28870086 0 0 Z M-70.71484375 79.43359375 C-71.89002784 79.46151567 -71.89002784 79.46151567 -73.08895302 79.49000168 C-103.09284726 80.23566092 -132.15851696 85.60102933 -156 105 C-156.85078125 105.67546875 -157.7015625 106.3509375 -158.578125 107.046875 C-173.36996548 119.47928081 -182.83019248 138.06375244 -185.75 157.0625 C-185.8325 158.361875 -185.915 159.66125 -186 161 C-186.06316406 161.90363281 -186.12632812 162.80726563 -186.19140625 163.73828125 C-186.86147641 181.09526003 -181.67761713 197.80231173 -170.75 211.375 C-148.25186594 234.78727946 -116.76681944 238.20332346 -86.10627747 238.84796143 C-75.63636992 239.03204019 -65.16633139 239.00726027 -54.6953125 238.984375 C-53.13469445 238.98153524 -51.57407636 238.97871246 -50.01345825 238.97590637 C-42.92016385 238.96170827 -35.82714013 238.94085426 -28.73399925 238.89066505 C-25.72220604 238.87109382 -22.71041303 238.85974762 -19.69857407 238.8498764 C-18.29363658 238.84332565 -16.88870998 238.83316736 -15.4838295 238.81891632 C16.01068738 238.50448921 16.01068738 238.50448921 27.5 247.4375 C32.00153817 252.05157662 33.69512321 255.89025673 34.3125 262.1875 C33.79270665 268.52897887 31.63988558 273.85281733 26.9375 278.25 C16.49217765 286.30206862 4.4095779 288.23517233 -8.39306641 288.62329102 C-10.02359672 288.68000772 -10.02359672 288.68000772 -11.68706703 288.73787022 C-22.84945297 289.0902635 -34.00813962 289.10093017 -45.17484665 289.04459953 C-48.82820791 289.02677148 -52.48152303 289.01677713 -56.13491821 289.00868225 C-66.50128518 288.98459456 -76.86758842 288.94867811 -87.23388672 288.90405273 C-93.62993597 288.87705392 -100.02595086 288.86015902 -106.42204666 288.84918404 C-108.82901926 288.84304799 -111.23598576 288.83313853 -113.64292526 288.81910515 C-147.651262 288.62231294 -180.3747604 291.39142262 -206.3125 315.75 C-216.62355616 326.59669544 -223.21215918 340.13269215 -225 355 C-223.98421875 354.66226562 -222.9684375 354.32453125 -221.921875 353.9765625 C-202.04266842 347.48202498 -182.42653964 346.85490647 -161.68041992 346.84228516 C-159.91728086 346.83760087 -158.15414297 346.83245475 -156.39100647 346.82688904 C-152.63008428 346.81572237 -148.86916947 346.80723426 -145.10823631 346.80076981 C-139.14067635 346.78995836 -133.17317046 346.76968225 -127.2056427 346.74765015 C-110.2483671 346.68615729 -93.29109688 346.63177994 -76.33374023 346.59863281 C-66.94056357 346.58019289 -57.54748007 346.55114939 -48.15437204 346.5106281 C-43.2031079 346.48973131 -38.25196017 346.47412559 -33.30064964 346.47182083 C-28.6390702 346.46964769 -23.97773389 346.45351223 -19.31622887 346.42743111 C-17.62338102 346.42033955 -15.93050338 346.41808657 -14.2376442 346.42153358 C15.39525761 346.47215773 46.69292049 340.49182014 70 321 C70.84691406 320.31421875 71.69382812 319.6284375 72.56640625 318.921875 C88.70202956 305.22507109 98.69687219 286.02999531 100.72631836 264.96337891 C102.06207302 246.76289914 97.58918515 228.96216809 86.07421875 214.59765625 C73.85892502 201.50819838 57.42532863 193.37264425 40 190 C39.28972656 189.68804687 38.57945312 189.37609375 37.84765625 189.0546875 C33.82866208 187.56617114 29.79389116 186.9862313 25.5625 186.375 C24.65105225 186.2423877 23.73960449 186.10977539 22.80053711 185.97314453 C14.06436809 184.81547363 5.45527547 184.80079367 -3.33984375 184.9921875 C-7.01664412 185.05503879 -10.38030285 184.70128261 -14 184 C-17.65926322 184 -21.31808011 184.01414174 -24.97729492 184.03173828 C-32.11582052 184.06473362 -39.25434242 184.08702604 -46.39292431 184.10362434 C-50.70234034 184.11400027 -55.01167541 184.12805897 -59.32104492 184.15087891 C-63.50782864 184.17289876 -67.69453522 184.18462739 -71.88137245 184.18975449 C-73.46104461 184.19339516 -75.04071346 184.20050043 -76.62035179 184.21146011 C-84.85923218 184.26629415 -92.98595918 184.05894298 -101.1809082 183.15185547 C-101.866421 183.07938158 -102.5519338 183.00690769 -103.25821972 182.93223763 C-110.46570507 182.03958607 -117.67265 179.73625326 -122.62109375 174.1796875 C-125.55004616 169.17310448 -125.86481798 163.64834245 -125 158 C-122.80181582 150.37504861 -117.2385618 145.67355437 -110.71484375 141.55859375 C-100.04783575 135.74810972 -88.61784133 134.55199227 -76.66088867 134.61523438 C-74.72107649 134.60698683 -72.7812643 134.59873852 -70.84145224 134.59046173 C-68.78382605 134.58451311 -66.72632229 134.58582554 -64.66869164 134.58930969 C-60.34911921 134.59620226 -56.02980572 134.58011045 -51.71028137 134.56091309 C-42.53603464 134.52327346 -33.36181207 134.51029759 -24.1875 134.5 C-14.28794876 134.4888792 -4.38852011 134.4732269 5.51094836 134.42928743 C9.09396015 134.41408386 12.67676147 134.40495696 16.25980568 134.41069031 C50.83189171 134.52664036 50.83189171 134.52664036 79.9387207 117.32128906 C90.1123909 107.07671618 95.28666169 94.2170626 97 80 C93.400482 79.17597237 90.08040987 78.87445268 86.39091492 78.87301636 C85.27228058 78.87019653 84.15364624 78.86737671 83.00111389 78.86447144 C81.78217941 78.86649567 80.56324493 78.8685199 79.30737305 78.87060547 C77.36903595 78.86797699 77.36903595 78.86797699 75.39154053 78.86529541 C71.84173387 78.86073313 68.29195628 78.86250988 64.74214911 78.8656745 C60.98522859 78.86822299 57.2283104 78.86585195 53.47138977 78.86428833 C47.12520917 78.86246604 40.77904017 78.86486635 34.43286133 78.86962891 C27.99860877 78.87440342 21.56437943 78.87450681 15.13012695 78.86962891 C-27.79578316 78.78547323 -27.79578316 78.78547323 -70.71484375 79.43359375 Z " fill="#5D78FB" transform="translate(327,15)"/>
<path d="M0 0 C1.15652594 3.46957781 0.54459129 5.27137624 -0.40771484 8.71459961 C-1.00311525 11.01202053 -1.39852292 13.28879889 -1.7890625 15.62890625 C-2.91216436 21.29762335 -5.03387055 26.20193332 -7.5625 31.375 C-8.01012695 32.29619629 -8.45775391 33.21739258 -8.91894531 34.16650391 C-12.57834047 41.5046903 -16.57861655 47.80772432 -22 54 C-22.50515137 54.58442871 -23.01030273 55.16885742 -23.53076172 55.77099609 C-35.89773514 69.96470119 -49.79590563 80.53462756 -66 90 C-66.63679688 90.37866211 -67.27359375 90.75732422 -67.9296875 91.14746094 C-86.16304702 101.87351376 -106.13693301 108.57704352 -126.75 112.9375 C-128.02552734 113.20771973 -129.30105469 113.47793945 -130.61523438 113.75634766 C-134.73415429 114.57711678 -138.85616928 115.31813028 -143 116 C-143.83370117 116.13799011 -144.66740234 116.27598022 -145.52636719 116.41815186 C-160.10114554 118.75411768 -174.39196093 119.41958845 -189.14013672 119.28125 C-192.55316926 119.24950547 -195.96573917 119.24020035 -199.37890625 119.234375 C-201.57552647 119.22522341 -203.77214203 119.21485362 -205.96875 119.203125 C-207.47967224 119.19675018 -207.47967224 119.19675018 -209.02111816 119.19024658 C-214.11470578 119.13853228 -218.97898372 118.87056537 -224 118 C-224 117.34 -224 116.68 -224 116 C-224.9075 116.04125 -225.815 116.0825 -226.75 116.125 C-232.25093115 116.13620353 -237.60561405 114.97369022 -243 114 C-244.05316406 113.83242188 -245.10632813 113.66484375 -246.19140625 113.4921875 C-249.27214031 112.95230921 -252.03995051 112.00641683 -255 111 C-258.45469888 110.05966776 -261.912841 109.1951311 -265.4375 108.5625 C-269.39229672 107.69437389 -273.17751752 106.32412792 -277 105 C-277 104.34 -277 103.68 -277 103 C-279.64 102.67 -282.28 102.34 -285 102 C-285 101.34 -285 100.68 -285 100 C-287.31 99.67 -289.62 99.34 -292 99 C-292 98.34 -292 97.68 -292 97 C-292.85078125 96.74605469 -293.7015625 96.49210937 -294.578125 96.23046875 C-303.67780817 92.95832241 -312.15048966 87.14213216 -319.9140625 81.4453125 C-321.88205708 80.08172075 -323.83308003 79.00992198 -326 78 C-325.85433594 77.45214844 -325.70867187 76.90429688 -325.55859375 76.33984375 C-324.72375699 72.84287021 -324.18451979 69.2997456 -323.59765625 65.75390625 C-323.00026369 63.00121504 -322.11897582 60.57973085 -321 58 C-320.34 58 -319.68 58 -319 58 C-319.495 56.515 -319.495 56.515 -320 55 C-318.890625 52.625 -318.890625 52.625 -317.25 50 C-316.71890625 49.13375 -316.1878125 48.2675 -315.640625 47.375 C-314 45 -314 45 -312.359375 43.4375 C-310.84263424 42.07238997 -310.84263424 42.07238997 -310.51953125 40.0078125 C-309.84674067 37.40770453 -308.74686878 36.5595372 -306.6875 34.875 C-306.09324219 34.37742187 -305.49898437 33.87984375 -304.88671875 33.3671875 C-303 32 -303 32 -300.89453125 31.0078125 C-298.66785893 30.01536392 -298.66785893 30.01536392 -297 27 C-291.66666667 24 -291.66666667 24 -289 24 C-289 23.34 -289 22.68 -289 22 C-288.01 22 -287.02 22 -286 22 C-285.505 20.515 -285.505 20.515 -285 19 C-281.04 18.505 -281.04 18.505 -277 18 C-279.38776681 20.68722271 -281.86444155 22.08156849 -285.0625 23.6875 C-290.9684224 26.83940575 -295.96636681 30.60638203 -301 35 C-301.62648438 35.53109375 -302.25296875 36.0621875 -302.8984375 36.609375 C-313.50240796 46.30169189 -319.98617799 60.9456422 -322 75 C-320.58460938 74.49339844 -320.58460938 74.49339844 -319.140625 73.9765625 C-299.68131799 67.15177802 -280.10140589 66.85470867 -259.68041992 66.84228516 C-257.91728086 66.83760087 -256.15414297 66.83245475 -254.39100647 66.82688904 C-250.63008428 66.81572237 -246.86916947 66.80723426 -243.10823631 66.80076981 C-237.14067635 66.78995836 -231.17317046 66.76968225 -225.2056427 66.74765015 C-208.2483671 66.68615729 -191.29109688 66.63177994 -174.33374023 66.59863281 C-164.94056357 66.58019289 -155.54748007 66.55114939 -146.15437204 66.5106281 C-141.2031079 66.48973131 -136.25196017 66.47412559 -131.30064964 66.47182083 C-126.6390702 66.46964769 -121.97773389 66.45351223 -117.31622887 66.42743111 C-115.62338102 66.42033955 -113.93050338 66.41808657 -112.2376442 66.42153358 C-82.58372974 66.47219363 -51.33538595 60.47767223 -28 41 C-27.15308594 40.32582031 -26.30617188 39.65164063 -25.43359375 38.95703125 C-13.15173028 28.66276706 -5.98475478 14.62940058 0 0 Z " fill="#5432E2" transform="translate(425,294)"/>
<path d="M0 0 C1.0636377 0.16628906 2.12727539 0.33257812 3.22314453 0.50390625 C33.21852691 5.32531018 62.16489218 14.69526549 89.01513672 28.94775391 C90.37990261 29.67126449 91.74899652 30.38665114 93.12158203 31.09521484 C109.04439244 39.33115126 124.07843489 49.50527337 137 62 C136.34 62.33 135.68 62.66 135 63 C134.01 62.67 133.02 62.34 132 62 C132 61.34 132 60.68 132 60 C131.43410156 59.74089844 130.86820312 59.48179688 130.28515625 59.21484375 C127.77292595 57.879282 125.67271763 56.32117377 123.4375 54.5625 C122.29087891 53.66724609 122.29087891 53.66724609 121.12109375 52.75390625 C119 51 119 51 117.41015625 49.33984375 C115.925478 47.73948929 115.925478 47.73948929 113 47 C113 46.34 113 45.68 113 45 C110.44168757 43.56734504 108.24974291 42.80596799 105.375 42.0625 C102 41 102 41 100 38 C97.68745988 36.95281202 95.3514852 35.95653635 93 35 C92.13375 34.46375 91.2675 33.9275 90.375 33.375 C88.06387603 31.86243792 88.06387603 31.86243792 85.375 31.5 C83 31 83 31 81.6159668 29.59643555 C79.7741499 27.77687962 78.13935392 26.98227368 75.76953125 25.95703125 C74.96708984 25.60576172 74.16464844 25.25449219 73.33789062 24.89257812 C72.50451172 24.53615234 71.67113281 24.17972656 70.8125 23.8125 C69.96751953 23.44447266 69.12253906 23.07644531 68.25195312 22.69726562 C66.17062203 21.7918278 64.08668118 20.89302209 62 20 C62 19.34 62 18.68 62 18 C61.13375 18.061875 60.2675 18.12375 59.375 18.1875 C55.48125917 17.97118107 53.45456668 16.76115164 50 15 C47.75257487 14.43196947 45.49679306 13.98705606 43.22265625 13.5390625 C41 13 41 13 37.5 11.375 C33.65249671 9.86348085 31.10905384 9.93251567 27.06640625 10.08984375 C24.13364762 9.96233251 22.39450102 8.6179061 20 7 C16.80604974 6.28598768 16.80604974 6.28598768 14 6 C14 5.34 14 4.68 14 4 C13.071875 4.20625 12.14375 4.4125 11.1875 4.625 C5.6395261 5.44355353 -0.97158937 4.51420532 -6 2 C-7.99960012 1.960008 -10.00047242 1.95653201 -12 2 C-12 1.34 -12 0.68 -12 0 C-12.99 0.33 -13.98 0.66 -15 1 C-21.54098361 1.2295082 -21.54098361 1.2295082 -24 0 C-26.71760108 -0.07181821 -29.40859388 -0.09299506 -32.125 -0.0625 C-33.25615234 -0.05573242 -33.25615234 -0.05573242 -34.41015625 -0.04882812 C-36.27347127 -0.03703499 -38.13674555 -0.01909942 -40 0 C-40 -0.66 -40 -1.32 -40 -2 C-41.18529297 -1.7525 -41.18529297 -1.7525 -42.39453125 -1.5 C-46.86112841 -0.88058024 -51.18677985 -0.93632449 -55.6875 -1 C-64.60791248 -1.06396592 -73.24043229 -0.81721988 -82 1 C-86.23488909 1.76228004 -90.21282093 2.01971987 -94.5 1.9375 C-99.14060187 1.8802871 -102.60887066 2.59483861 -107 4 C-108.66666667 4 -110.33333333 4 -112 4 C-115.53453411 4.95342232 -119.03149836 6.00953652 -122.53515625 7.0703125 C-123.69917969 7.41835938 -124.86320313 7.76640625 -126.0625 8.125 C-127.81240234 8.65480469 -127.81240234 8.65480469 -129.59765625 9.1953125 C-133 10 -133 10 -135.99609375 9.9296875 C-139.10616991 10.00248512 -141.09989635 10.7715833 -143.88916016 12.07763672 C-148.51286321 14.09803345 -153.39327732 15.5030033 -158.1875 17.0625 C-160.32774883 17.75887947 -162.46711166 18.45798934 -164.60546875 19.16015625 C-165.54543701 19.46574463 -166.48540527 19.77133301 -167.45385742 20.08618164 C-169.97965101 20.92874868 -169.97965101 20.92874868 -172.1496582 22.11499023 C-174 23 -174 23 -177 23 C-177 23.66 -177 24.32 -177 25 C-178.00160156 25.37511719 -179.00320312 25.75023438 -180.03515625 26.13671875 C-181.37780562 26.65312235 -182.72024228 27.17007926 -184.0625 27.6875 C-184.71927734 27.93177734 -185.37605469 28.17605469 -186.05273438 28.42773438 C-190.25760653 30.06411319 -193.61391012 32.05071154 -197.21166992 34.75756836 C-200.9094322 37.32656662 -205.11702136 39.03860115 -209.21484375 40.87304688 C-212.78719936 42.56359757 -215.2876784 44.04967211 -217.7421875 47.19140625 C-220.16637251 50.2069582 -220.48789259 50.31745837 -224 51 C-226.12442803 52.42492124 -228.11842974 53.86272334 -230.125 55.4375 C-230.69686035 55.88125977 -231.2687207 56.32501953 -231.85791016 56.78222656 C-236.50169068 60.45634118 -240.6715203 64.48578035 -244.78515625 68.74609375 C-247.23040976 71.23447342 -249.80686596 73.471724 -252.48046875 75.70703125 C-255.83629859 78.562506 -258.76883649 81.68135905 -261.5 85.125 C-263.86588655 87.84576953 -265.82261096 89.36591421 -269 91 C-267.64891034 88.03674056 -266.11293352 85.79214835 -263.9375 83.375 C-263.30972656 82.67632812 -262.68195313 81.97765625 -262.03515625 81.2578125 C-261.36355469 80.51273437 -260.69195312 79.76765625 -260 79 C-259.33871094 78.23429687 -258.67742187 77.46859375 -257.99609375 76.6796875 C-247.7176035 64.90579996 -236.14067902 55.25522618 -223.48950195 46.13818359 C-221.84635558 44.93470199 -221.84635558 44.93470199 -220 43 C-218.67103184 42.32467352 -217.33646312 41.66037001 -216 41 C-214.29038873 39.96224322 -212.58126972 38.92365369 -210.8762207 37.87841797 C-179.01166353 18.5252136 -143.57999579 6.04368222 -106.75195312 0.421875 C-104.94114649 0.14427796 -103.13238015 -0.14703273 -101.32617188 -0.453125 C-68.72904746 -5.88988479 -32.57027684 -5.28870086 0 0 Z " fill="#4BB5FC" transform="translate(327,15)"/>
<path d="M0 0 C1.7549182 3.12640889 2.5149554 5.97529785 3.125 9.5 C3.29257812 10.4384375 3.46015625 11.376875 3.6328125 12.34375 C4 15 4 15 4 19 C4.66 19 5.32 19 6 19 C6.309375 20.11375 6.61875 21.2275 6.9375 22.375 C7.82326483 25.7945155 7.82326483 25.7945155 9 28 C9.13415472 30.6723621 9.04318541 33.32250488 9 36 C9.66 36 10.32 36 11 36 C11.59732819 38.76264289 12 41.16032769 12 44 C12.99 44 13.98 44 15 44 C15.50660156 45.24716797 15.50660156 45.24716797 16.0234375 46.51953125 C16.46945313 47.60621094 16.91546875 48.69289063 17.375 49.8125 C17.81585938 50.89144531 18.25671875 51.97039062 18.7109375 53.08203125 C19.9479119 56.10730112 19.9479119 56.10730112 22 59 C22.125 61.6875 22.125 61.6875 22 64 C23.485 64.495 23.485 64.495 25 65 C25.33 66.98 25.66 68.96 26 71 C26.66 71 27.32 71 28 71 C28 71.99 28 72.98 28 74 C29.485 74.495 29.485 74.495 31 75 C35 80.25714286 35 80.25714286 35 84 C35.598125 84.20625 36.19625 84.4125 36.8125 84.625 C39.79999802 86.5028559 40.4366911 88.8733822 42 92 C42.845625 92.66 43.69125 93.32 44.5625 94 C47.61592759 96.50537648 48.03976052 98.20147258 49 102 C48.98339844 104.98510742 48.98339844 104.98510742 48.609375 108.10546875 C48.47660156 109.25466797 48.34382813 110.40386719 48.20703125 111.58789062 C48.05621094 112.77576172 47.90539062 113.96363281 47.75 115.1875 C47.61464844 116.35603516 47.47929688 117.52457031 47.33984375 118.72851562 C45.05219208 137.89561584 45.05219208 137.89561584 43 142 C42.72474066 144.42927295 42.55467639 146.85853173 42.37890625 149.296875 C42 152 42 152 41.0859375 154.7265625 C39.67975664 158.96533789 38.89283351 163.24275301 38.0625 167.625 C36.60017534 175.14983611 34.96560661 182.5882859 33 190 C32.66464379 191.33282598 32.33164886 192.66624668 32 194 C31.690625 195.22589844 31.38125 196.45179688 31.0625 197.71484375 C30.70830114 199.12238773 30.35413541 200.52994005 30 201.9375 C29.73316406 202.99227539 29.73316406 202.99227539 29.4609375 204.06835938 C28.54904805 207.69890432 27.71574475 211.32626586 27 215 C26.36064451 217.67409267 25.67750202 220.33515872 25 223 C26.32 223.33 27.64 223.66 29 224 C29 223.34 29 222.68 29 222 C33.1196377 220.70756464 36.66831683 219.73747375 41 220 C41.33 219.01 41.66 218.02 42 217 C44.08203125 216.2265625 44.08203125 216.2265625 46.8125 215.625 C52.31723636 214.27939778 57.30050237 212.2935917 62.46875 209.98828125 C65 209 65 209 68 209 C68 208.34 68 207.68 68 207 C68.81082031 206.69707031 69.62164062 206.39414062 70.45703125 206.08203125 C76.02592549 203.9750573 81.4993878 201.81444365 86.875 199.25 C91.00982879 197.31879885 94.45523162 196.30298456 99 196 C99 195.34 99 194.68 99 194 C108 191 108 191 111 191 C111.33 190.34 111.66 189.68 112 189 C113.92578125 187.74609375 113.92578125 187.74609375 116.3125 186.4375 C117.09238281 186.00308594 117.87226563 185.56867188 118.67578125 185.12109375 C120.80863672 184.09230464 122.71022071 183.54077766 125 183 C125.680625 182.54625 126.36125 182.0925 127.0625 181.625 C130.70616641 179.60935475 134.33335838 178.7812157 138.3515625 177.7578125 C141.45495807 176.86982026 144.1328877 175.46689466 147 174 C150.375 173.3125 150.375 173.3125 153 173 C153 173.66 153 174.32 153 175 C153.99 174.67 154.98 174.34 156 174 C156.99 174.33 157.98 174.66 159 175 C159 175.66 159 176.32 159 177 C159.89138672 177.05607422 159.89138672 177.05607422 160.80078125 177.11328125 C167.36871367 177.63422146 173.81190394 178.65279115 180 181 C180.33 181.66 180.66 182.32 181 183 C182.65 183 184.3 183 186 183 C186 183.66 186 184.32 186 185 C188.97 185.33 191.94 185.66 195 186 C195 186.33 195 186.66 195 187 C189.58500559 187.11521265 184.37084106 186.68201156 179 186 C179 185.34 179 184.68 179 184 C178.195625 183.87044922 178.195625 183.87044922 177.375 183.73828125 C173.17050342 182.98451459 169.10642959 182.07517737 165.0546875 180.71875 C164.36503906 180.48889404 163.67539063 180.25903809 162.96484375 180.0222168 C161.60050451 179.55888337 160.2407541 179.08174477 158.88671875 178.58911133 C149.00232738 175.23882548 141.48338273 179.22465832 132.4375 183.3125 C130.46334233 184.18756584 128.48715275 185.05793521 126.51086426 185.92817688 C125.06498579 186.56500708 123.61960731 187.20297344 122.17468262 187.84196472 C98.27833886 198.4014027 74.22850494 208.70238532 49.94049072 218.33010864 C48.41711364 218.93531142 46.89567958 219.54543208 45.37640381 220.16085815 C31.05014099 225.94707541 31.05014099 225.94707541 23 225 C22.67 224.67 22.34 224.34 22 224 C22.48426521 217.26496258 23.84456234 210.95145939 25.51171875 204.421875 C26.02491464 202.36712951 26.53801317 200.31235971 27.05102539 198.25756836 C27.31867706 197.19440399 27.58632874 196.13123962 27.86209106 195.03585815 C37.84721146 155.6691 37.84721146 155.6691 43.74951172 115.53271484 C43.97573098 113.24538674 44.27782623 110.98264081 44.59765625 108.70703125 C45.2048472 101.97209714 44.42555212 97.86319115 40.31005859 92.59887695 C38.71280212 90.70591557 37.07980065 88.85049293 35.43359375 87 C18.41381446 67.75229936 8.47887492 41.99871623 2.125 17.4375 C1.9094043 16.61644775 1.69380859 15.79539551 1.47167969 14.94946289 C0.21098028 9.83087696 -0.20526119 5.27038282 0 0 Z " fill="#4F32D2" transform="translate(18,253)"/>
<path d="M0 0 C0.73114444 0.00322913 1.46228889 0.00645826 2.21558923 0.00978523 C4.65999004 0.02182748 7.10427674 0.04120702 9.54862976 0.06056213 C11.30303705 0.07070841 13.05744701 0.0804017 14.81185913 0.0896759 C19.57177862 0.11612199 24.33163587 0.14890863 29.0915072 0.1828258 C34.06695405 0.21720339 39.04243421 0.24576063 44.01791382 0.27493286 C53.43842364 0.33105282 62.85889176 0.39241415 72.27935618 0.4556542 C83.00475752 0.52739948 93.73019224 0.59330834 104.45563376 0.65872467 C126.51751888 0.79341481 148.57935174 0.93544181 170.64115906 1.08229065 C170.69545865 2.83194423 170.73408729 4.58208851 170.76615906 6.33229065 C170.78936218 7.3068219 170.81256531 8.28135315 170.83647156 9.28541565 C170.63978686 12.10194045 170.08684822 13.69178101 168.64115906 16.08229065 C167.98115906 16.08229065 167.32115906 16.08229065 166.64115906 16.08229065 C166.52901062 16.96272034 166.41686218 17.84315002 166.30131531 18.7502594 C164.45090262 28.08991632 158.11635631 35.42631378 151.64115906 42.08229065 C151.64115906 38.21024589 152.79409315 37.49793415 155.32865906 34.64479065 C162.73429087 25.6167236 165.40179764 15.37012867 167.64115906 4.08229065 C164.41507939 3.12424245 161.51149072 2.95661348 158.15232849 2.95530701 C157.03506882 2.95248718 155.91780914 2.94966736 154.76669312 2.94676208 C153.54416336 2.94878632 152.32163361 2.95081055 151.0620575 2.95289612 C149.76997879 2.9511438 148.47790009 2.94939148 147.14666748 2.94758606 C143.59266954 2.94301802 140.03870058 2.944803 136.48470211 2.94796515 C132.72510644 2.95051119 128.96551313 2.94814322 125.20591736 2.94657898 C118.8537604 2.94475576 112.50161503 2.94715918 106.14945984 2.95191956 C99.70837135 2.95669245 93.26730606 2.95679869 86.82621765 2.95191956 C43.89059986 2.87002882 43.89059986 2.87002882 0.96147156 3.5002594 C0.1808007 3.51780651 -0.59987015 3.53535362 -1.40419769 3.55343246 C-17.04442085 3.9219399 -32.0623601 5.94737233 -47.35884094 9.08229065 C-45.60395813 5.18141174 -45.60395813 5.18141174 -43.39790344 4.2893219 C-42.60126282 4.15912659 -41.80462219 4.02893127 -40.98384094 3.89479065 C-40.09954407 3.74783752 -39.21524719 3.6008844 -38.30415344 3.44947815 C-34.15376566 2.9320558 -30.00134889 2.59193355 -25.82759094 2.3283844 C-23.35784435 2.23024573 -23.35784435 2.23024573 -21.35884094 1.08229065 C-19.148214 1.01280139 -16.9561634 1.08474029 -14.74555969 1.14479065 C-12.37272734 1.16088604 -12.37272734 1.16088604 -10.16959858 0.58352757 C-6.73155984 -0.02957116 -3.49356155 -0.0221579 0 0 Z " fill="#2985F4" transform="translate(255.3588409423828,91.91770935058594)"/>
<path d="M0 0 C-43.91612971 14.53047545 -102.97499514 19.57891332 -148 6 C-148 5.67 -148 5.34 -148 5 C-146.18757948 4.97312721 -144.37504767 4.95366285 -142.5625 4.9375 C-141.55316406 4.92589844 -140.54382813 4.91429687 -139.50390625 4.90234375 C-137 5 -137 5 -136 6 C-133.64686445 6.07271741 -131.29166332 6.08370868 -128.9375 6.0625 C-127.64714844 6.05347656 -126.35679687 6.04445313 -125.02734375 6.03515625 C-124.02832031 6.02355469 -123.02929688 6.01195312 -122 6 C-122 6.66 -122 7.32 -122 8 C-118.7 8 -115.4 8 -112 8 C-112 8.66 -112 9.32 -112 10 C-111.31413818 9.96970703 -110.62827637 9.93941406 -109.92163086 9.90820312 C-90.93183011 9.09285374 -72.00386803 8.87441527 -53 9 C-53 8.01 -53 7.02 -53 6 C-52.195625 6.185625 -51.39125 6.37125 -50.5625 6.5625 C-49.716875 6.706875 -48.87125 6.85125 -48 7 C-47.67 6.67 -47.34 6.34 -47 6 C-45.948125 6.020625 -44.89625 6.04125 -43.8125 6.0625 C-39.9698219 5.99950528 -37.60565958 5.21573399 -34 4 C-29.67066417 3.09870814 -25.31193492 2.38015811 -20.94970703 1.65795898 C-18.87229403 1.31204943 -16.7975764 0.95232222 -14.72265625 0.59179688 C-13.39597465 0.36894871 -12.06915592 0.14691507 -10.7421875 -0.07421875 C-8.94563721 -0.37718872 -8.94563721 -0.37718872 -7.11279297 -0.6862793 C-4.32464919 -0.96728045 -2.60697659 -0.9212715 0 0 Z " fill="#6C4DE9" transform="translate(362,435)"/>
<path d="M0 0 C-2.26727333 1.17407021 -4.53834624 2.33939739 -6.8125 3.5 C-7.45509766 3.83386719 -8.09769531 4.16773438 -8.75976562 4.51171875 C-11.69547699 6.00239084 -13.66126517 7 -17 7 C-17 7.66 -17 8.32 -17 9 C-18.00160156 9.37511719 -19.00320312 9.75023437 -20.03515625 10.13671875 C-21.37780562 10.65312235 -22.72024228 11.17007926 -24.0625 11.6875 C-24.71927734 11.93177734 -25.37605469 12.17605469 -26.05273438 12.42773438 C-30.25760653 14.06411319 -33.61391012 16.05071154 -37.21166992 18.75756836 C-40.9094322 21.32656662 -45.11702136 23.03860115 -49.21484375 24.87304688 C-52.78719936 26.56359757 -55.2876784 28.04967211 -57.7421875 31.19140625 C-60.16637251 34.2069582 -60.48789259 34.31745837 -64 35 C-66.12442803 36.42492124 -68.11842974 37.86272334 -70.125 39.4375 C-70.69686035 39.88125977 -71.2687207 40.32501953 -71.85791016 40.78222656 C-76.50169068 44.45634118 -80.6715203 48.48578035 -84.78515625 52.74609375 C-87.23040976 55.23447342 -89.80686596 57.471724 -92.48046875 59.70703125 C-95.83629859 62.562506 -98.76883649 65.68135905 -101.5 69.125 C-103.86588655 71.84576953 -105.82261096 73.36591421 -109 75 C-107.64891034 72.03674056 -106.11293352 69.79214835 -103.9375 67.375 C-103.30972656 66.67632812 -102.68195313 65.97765625 -102.03515625 65.2578125 C-101.36355469 64.51273437 -100.69195312 63.76765625 -100 63 C-99.33871094 62.23429687 -98.67742187 61.46859375 -97.99609375 60.6796875 C-87.7176035 48.90579996 -76.14067902 39.25522618 -63.48950195 30.13818359 C-61.84635558 28.93470199 -61.84635558 28.93470199 -60 27 C-58.67103184 26.32467352 -57.33646312 25.66037001 -56 25 C-54.28959043 23.96175864 -52.57964881 22.92272711 -50.87353516 21.87744141 C-42.8409184 16.99621374 -34.59452342 12.69888421 -26.125 8.625 C-25.09221924 8.12564941 -24.05943848 7.62629883 -22.99536133 7.11181641 C-4.70705382 -1.56901794 -4.70705382 -1.56901794 0 0 Z " fill="#4BADFB" transform="translate(167,31)"/>
<path d="M0 0 C7.36711131 0.49114075 13.60559971 2.86007074 20.4375 5.5625 C22.17338379 6.24348755 22.17338379 6.24348755 23.94433594 6.93823242 C51.43163275 17.83856543 75.85180058 32.33298272 98 52 C97.01 52.495 97.01 52.495 96 53 C94.515 52.505 94.515 52.505 93 52 C93 51.34 93 50.68 93 50 C92.43410156 49.74089844 91.86820312 49.48179688 91.28515625 49.21484375 C88.77292595 47.879282 86.67271763 46.32117377 84.4375 44.5625 C83.67308594 43.96566406 82.90867187 43.36882812 82.12109375 42.75390625 C80 41 80 41 78.41015625 39.33984375 C76.925478 37.73948929 76.925478 37.73948929 74 37 C74 36.34 74 35.68 74 35 C71.44168757 33.56734504 69.24974291 32.80596799 66.375 32.0625 C63 31 63 31 61 28 C58.68745988 26.95281202 56.3514852 25.95653635 54 25 C53.13375 24.46375 52.2675 23.9275 51.375 23.375 C49.06387603 21.86243792 49.06387603 21.86243792 46.375 21.5 C44 21 44 21 42.6159668 19.59643555 C40.7741499 17.77687962 39.13935392 16.98227368 36.76953125 15.95703125 C35.96708984 15.60576172 35.16464844 15.25449219 34.33789062 14.89257812 C33.50451172 14.53615234 32.67113281 14.17972656 31.8125 13.8125 C30.96751953 13.44447266 30.12253906 13.07644531 29.25195312 12.69726562 C27.17062203 11.7918278 25.08668118 10.89302209 23 10 C23 9.34 23 8.68 23 8 C21.700625 8.0928125 21.700625 8.0928125 20.375 8.1875 C16.51199516 7.97288862 14.40175727 6.77174858 11 5 C7.7633037 4.29241674 7.7633037 4.29241674 5 4 C5 3.34 5 2.68 5 2 C3.35 1.67 1.7 1.34 0 1 C0 0.67 0 0.34 0 0 Z " fill="#4CAEFD" transform="translate(366,25)"/>
<path d="M0 0 C1.7549182 3.12640889 2.5149554 5.97529785 3.125 9.5 C3.29257812 10.4384375 3.46015625 11.376875 3.6328125 12.34375 C4 15 4 15 4 19 C4.66 19 5.32 19 6 19 C6.309375 20.11375 6.61875 21.2275 6.9375 22.375 C7.82326483 25.7945155 7.82326483 25.7945155 9 28 C9.13415472 30.6723621 9.04318541 33.32250488 9 36 C9.66 36 10.32 36 11 36 C11.59732819 38.76264289 12 41.16032769 12 44 C12.99 44 13.98 44 15 44 C15.50660156 45.24716797 15.50660156 45.24716797 16.0234375 46.51953125 C16.46945313 47.60621094 16.91546875 48.69289063 17.375 49.8125 C17.81585938 50.89144531 18.25671875 51.97039062 18.7109375 53.08203125 C19.9479119 56.10730112 19.9479119 56.10730112 22 59 C22.125 61.6875 22.125 61.6875 22 64 C23.485 64.495 23.485 64.495 25 65 C25.33 66.98 25.66 68.96 26 71 C26.66 71 27.32 71 28 71 C28 71.99 28 72.98 28 74 C29.485 74.495 29.485 74.495 31 75 C35 80.25714286 35 80.25714286 35 84 C35.598125 84.20625 36.19625 84.4125 36.8125 84.625 C39.79999802 86.5028559 40.4366911 88.8733822 42 92 C43.65893182 93.34294481 45.32476605 94.67744688 47 96 C47.8125 98.25 47.8125 98.25 48 100 C47.34 100 46.68 100 46 100 C46 101.65 46 103.3 46 105 C45.67 105 45.34 105 45 105 C44.94457031 103.98421875 44.88914063 102.9684375 44.83203125 101.921875 C44.15692132 97.27189505 41.72828215 94.68052887 38.6875 91.25 C20.65226332 69.73923707 9.1183732 44.47072828 2.125 17.4375 C1.9094043 16.61644775 1.69380859 15.79539551 1.47167969 14.94946289 C0.21098028 9.83087696 -0.20526119 5.27038282 0 0 Z " fill="#4E3DE0" transform="translate(18,253)"/>
<path d="M0 0 C14.23079618 -0.04691991 28.46158021 -0.08195272 42.69243813 -0.10362434 C49.3014966 -0.11402939 55.91050283 -0.12812838 62.51953125 -0.15087891 C68.90619795 -0.1727246 75.29281464 -0.18459324 81.67951584 -0.18975449 C84.10736248 -0.19342928 86.53520661 -0.20060481 88.96303177 -0.21146011 C113.37790945 -0.316211 113.37790945 -0.316211 125 2 C124.34 2.66 123.68 3.32 123 4 C120.87618692 3.79692624 118.75267977 3.58070401 116.63867188 3.29296875 C112.017597 2.77989604 107.39305822 2.93708593 102.75 3 C100.82818291 3.02562423 98.90629728 3.04661634 96.984375 3.0625 C96.14616211 3.07410156 95.30794922 3.08570313 94.44433594 3.09765625 C92 3 92 3 89.31347656 2.43359375 C86.98457746 1.75590895 86.98457746 1.75590895 85 3 C84.01 2.67 83.02 2.34 82 2 C79.66579097 1.91496465 77.32914621 1.892816 74.9934082 1.90234375 C73.92938026 1.90453415 73.92938026 1.90453415 72.84385681 1.9067688 C71.30350868 1.91057346 69.76316492 1.91668864 68.22283363 1.92483521 C65.77982841 1.93760956 63.33687758 1.944118 60.8938446 1.94897461 C54.82188117 1.96234254 48.74996899 1.98646133 42.67803955 2.01037598 C37.5532529 2.03017062 32.42848599 2.0457898 27.30367088 2.05593872 C24.90637547 2.06238414 22.50916163 2.0748961 20.1118927 2.08764648 C18.62578399 2.09128306 17.13967454 2.09463428 15.65356445 2.09765625 C14.36577591 2.10289307 13.07798737 2.10812988 11.75117493 2.11352539 C7.75974224 1.99272885 3.95186901 1.55423253 0 1 C0 0.67 0 0.34 0 0 Z " fill="#2F6EF0" transform="translate(227,198)"/>
<path d="M0 0 C0.495 0.99 0.495 0.99 1 2 C1.99 1.67 2.98 1.34 4 1 C4.99 1.33 5.98 1.66 7 2 C7 2.66 7 3.32 7 4 C7.59425781 4.03738281 8.18851563 4.07476562 8.80078125 4.11328125 C15.36871367 4.63422146 21.81190394 5.65279115 28 8 C28.495 8.99 28.495 8.99 29 10 C30.65 10 32.3 10 34 10 C34 10.66 34 11.32 34 12 C36.97 12.33 39.94 12.66 43 13 C43 13.33 43 13.66 43 14 C37.58500559 14.11521265 32.37084106 13.68201156 27 13 C27 12.34 27 11.68 27 11 C26.46375 10.91363281 25.9275 10.82726562 25.375 10.73828125 C21.17050342 9.98451459 17.10642959 9.07517737 13.0546875 7.71875 C12.36503906 7.48889404 11.67539063 7.25903809 10.96484375 7.0222168 C9.60050451 6.55888337 8.2407541 6.08174477 6.88671875 5.58911133 C-3.70168092 2.00020391 -11.90097145 6.92197479 -21.42382812 11.40625 C-27.43474423 14.14681347 -32.38663584 15.67172546 -39 16 C-35.88439064 13.55202122 -32.9734067 11.44560796 -29.0625 10.5625 C-26.89788478 10.08893906 -26.89788478 10.08893906 -24.9375 8.625 C-21.29502199 6.61001216 -17.66885611 5.78215793 -13.65234375 4.7578125 C-10.54485792 3.8699594 -7.85652838 2.49627677 -5 1 C-2.125 0.3125 -2.125 0.3125 0 0 Z " fill="#5B3BDE" transform="translate(170,426)"/>
<path d="M0 0 C2.84905441 1.2959361 4.92159788 2.66580382 7.13671875 4.87109375 C7.70946533 5.43973145 8.28221191 6.00836914 8.87231445 6.59423828 C9.47132568 7.20251465 10.07033691 7.81079102 10.6875 8.4375 C11.31035889 9.06640137 11.93321777 9.69530273 12.57495117 10.34326172 C17.7456276 15.62437978 22.49414769 21.13900414 27 27 C27.74765625 27.95390625 28.4953125 28.9078125 29.265625 29.890625 C37.46432619 40.5433592 44.00714851 51.81974184 50.25 63.6875 C50.75764893 64.64954346 51.26529785 65.61158691 51.78833008 66.6027832 C60.33805981 83.07630807 60.33805981 83.07630807 59.59863281 87.28393555 C59.30230957 88.13338745 59.30230957 88.13338745 59 89 C58.60059204 88.0570105 58.60059204 88.0570105 58.19311523 87.0949707 C50.83958385 69.68316214 50.83958385 69.68316214 42 53 C41.6503418 52.39704102 41.30068359 51.79408203 40.94042969 51.17285156 C36.24006675 43.11797336 31.11088279 35.57190722 25.25 28.3125 C24.71938965 27.65338623 24.1887793 26.99427246 23.64208984 26.31518555 C21.1647161 23.32230459 18.71070156 20.65990011 15.671875 18.23046875 C13 16 13 16 12 13 C10.00628175 11.65729179 8.0065438 10.32346506 6 9 C6 8.34 6 7.68 6 7 C5.38125 6.71125 4.7625 6.4225 4.125 6.125 C2 5 2 5 0 3 C0 2.01 0 1.02 0 0 Z " fill="#3E76F3" transform="translate(464,78)"/>
<path d="M0 0 C-1.34191406 0.72703125 -1.34191406 0.72703125 -2.7109375 1.46875 C-10.39481482 5.7003733 -17.39497996 10.16854087 -24 16 C-24.62261719 16.52851563 -25.24523437 17.05703125 -25.88671875 17.6015625 C-35.43703744 26.31488697 -40.19800856 37.96036043 -44 50 C-44.66460375 52.00068646 -45.33062025 54.00090641 -46 56 C-46.33 56 -46.66 56 -47 56 C-47.35403343 50.09944291 -47.06647901 46.23856831 -44 41 C-44 40.34 -44 39.68 -44 39 C-43.34 39 -42.68 39 -42 39 C-42.495 37.515 -42.495 37.515 -43 36 C-41.890625 33.625 -41.890625 33.625 -40.25 31 C-39.71890625 30.13375 -39.1878125 29.2675 -38.640625 28.375 C-37 26 -37 26 -35.359375 24.4375 C-33.84263424 23.07238997 -33.84263424 23.07238997 -33.51953125 21.0078125 C-32.84674067 18.40770453 -31.74686878 17.5595372 -29.6875 15.875 C-29.09324219 15.37742187 -28.49898437 14.87984375 -27.88671875 14.3671875 C-26 13 -26 13 -23.89453125 12.0078125 C-21.66785893 11.01536392 -21.66785893 11.01536392 -20 8 C-14.66666667 5 -14.66666667 5 -12 5 C-12 4.34 -12 3.68 -12 3 C-11.01 3 -10.02 3 -9 3 C-8.67 2.01 -8.34 1.02 -8 0 C-2.25 -1.125 -2.25 -1.125 0 0 Z " fill="#4D36DA" transform="translate(148,313)"/>
<path d="M0 0 C0.66 0.33 1.32 0.66 2 1 C-0.78946549 4.68929306 -3.54386234 7.5345194 -7.25 10.3125 C-11.50499634 13.50728131 -15.1583769 17.05755051 -18.8671875 20.86328125 C-21.28275179 23.28326965 -23.82775404 25.47650338 -26.4453125 27.671875 C-29.80844735 30.54490477 -32.75790972 33.66758182 -35.5 37.125 C-37.86588655 39.84576953 -39.82261096 41.36591421 -43 43 C-41.64891034 40.03674056 -40.11293352 37.79214835 -37.9375 35.375 C-37.30972656 34.67632812 -36.68195313 33.97765625 -36.03515625 33.2578125 C-35.02775391 32.14019531 -35.02775391 32.14019531 -34 31 C-33.33871094 30.23429687 -32.67742187 29.46859375 -31.99609375 28.6796875 C-22.45230642 17.74739336 -11.79585324 8.41650069 0 0 Z " fill="#499BFA" transform="translate(101,63)"/>
<path d="M0 0 C1.81242052 -0.02687279 3.62495233 -0.04633715 5.4375 -0.0625 C6.44683594 -0.07410156 7.45617187 -0.08570313 8.49609375 -0.09765625 C11 0 11 0 12 1 C14.35313555 1.07271741 16.70833668 1.08370868 19.0625 1.0625 C20.35285156 1.05347656 21.64320313 1.04445313 22.97265625 1.03515625 C23.97167969 1.02355469 24.97070312 1.01195312 26 1 C26 1.66 26 2.32 26 3 C29.3 3 32.6 3 36 3 C36 3.66 36 4.32 36 5 C36.69037354 4.99476318 37.38074707 4.98952637 38.09204102 4.98413086 C41.24885126 4.96322133 44.40564686 4.95029558 47.5625 4.9375 C48.64853516 4.92912109 49.73457031 4.92074219 50.85351562 4.91210938 C56.34832611 4.89540782 61.58961935 5.01417741 67 6 C67 6.33 67 6.66 67 7 C51.90581534 7.49013214 37.21911299 6.98925907 22.25 5.125 C21.53844757 5.03786743 20.82689514 4.95073486 20.09378052 4.86096191 C13.23364698 4.00851518 6.62422172 3.01638861 0 1 C0 0.67 0 0.34 0 0 Z " fill="#6140DE" transform="translate(214,440)"/>
<path d="M0 0 C0 0.66 0 1.32 0 2 C-1.48886719 2.51046875 -1.48886719 2.51046875 -3.0078125 3.03125 C-21.14515913 9.42182019 -36.89460255 18.80626092 -49 34 C-49 28.67635912 -45.35211426 24.9117716 -42 21 C-33.69854385 13.87588496 -25.39711075 9.199111 -15 6 C-15 5.34 -15 4.68 -15 4 C-13.58521865 3.35004703 -12.16808513 2.70521278 -10.75 2.0625 C-9.96109375 1.70285156 -9.1721875 1.34320313 -8.359375 0.97265625 C-2.71143376 -1.35571688 -2.71143376 -1.35571688 0 0 Z " fill="#4292FA" transform="translate(207,100)"/>
<path d="M0 0 C0.7031987 0.04580704 1.4063974 0.09161407 2.13090515 0.1388092 C4.36247143 0.28559073 6.59329197 0.44148416 8.82421875 0.59765625 C10.34305874 0.6991713 11.86193876 0.80008918 13.38085938 0.90039062 C17.09163442 1.14673465 20.80179653 1.40125077 24.51171875 1.66015625 C24.51171875 1.99015625 24.51171875 2.32015625 24.51171875 2.66015625 C22.86695557 2.68203003 22.86695557 2.68203003 21.18896484 2.7043457 C-2.12636808 3.03828509 -24.58865857 3.96702144 -47.48828125 8.66015625 C-45.73339844 4.75927734 -45.73339844 4.75927734 -43.52734375 3.8671875 C-42.73070312 3.73699219 -41.9340625 3.60679688 -41.11328125 3.47265625 C-40.22898438 3.32570313 -39.3446875 3.17875 -38.43359375 3.02734375 C-34.28320597 2.5099214 -30.1307892 2.16979915 -25.95703125 1.90625 C-23.48728465 1.80811133 -23.48728465 1.80811133 -21.48828125 0.66015625 C-19.27765431 0.59066699 -17.0856037 0.66260589 -14.875 0.72265625 C-12.50136377 0.74351255 -12.50136377 0.74351255 -10.30712891 0.13500977 C-6.7728195 -0.46036801 -3.57594472 -0.24219546 0 0 Z " fill="#459FFC" transform="translate(255.48828125,92.33984375)"/>
<path d="M0 0 C1.15355246 3.46065738 0.54874983 5.25236727 -0.3984375 8.6875 C-1.03457724 11.1329203 -1.49023986 13.57603684 -1.9375 16.0625 C-2.77295047 20.38679161 -4.10264396 24.032801 -6 28 C-6.7425 27.9175 -7.485 27.835 -8.25 27.75 C-11.78157027 28.07105184 -12.76630364 29.35265617 -15 32 C-15.33 31.01 -15.66 30.02 -16 29 C-14.77734375 26.94140625 -14.77734375 26.94140625 -12.9375 24.5625 C-7.4065182 17.01121946 -3.53382796 8.63824613 0 0 Z " fill="#6247F0" transform="translate(425,294)"/>
<path d="M0 0 C2.02772181 5.40725815 0.09463171 11.52684144 -1 17 C-1.91117023 23.10666203 -2.13306028 29.01884013 -2.09765625 35.1875 C-2.0962413 36.13061035 -2.09482635 37.0737207 -2.09336853 38.04541016 C-2.0878124 41.03030697 -2.07526823 44.01512621 -2.0625 47 C-2.05747932 49.03515516 -2.05291741 51.07031151 -2.04882812 53.10546875 C-2.03785737 58.07034197 -2.02062339 63.03515787 -2 68 C-10.88645428 51.15359895 -4.78604542 19.10717377 -1 1 C-0.67 0.67 -0.34 0.34 0 0 Z " fill="#354CDB" transform="translate(20,184)"/>
<path d="M0 0 C1.7549182 3.12640889 2.5149554 5.97529785 3.125 9.5 C3.29257812 10.4384375 3.46015625 11.376875 3.6328125 12.34375 C4 15 4 15 4 19 C4.66 19 5.32 19 6 19 C6.309375 20.11375 6.61875 21.2275 6.9375 22.375 C7.82326483 25.7945155 7.82326483 25.7945155 9 28 C9.13415472 30.6723621 9.04318541 33.32250488 9 36 C9.66 36 10.32 36 11 36 C11.17015625 36.61746094 11.3403125 37.23492187 11.515625 37.87109375 C13.04888697 43.22935498 14.86307724 48.18595383 17.328125 53.1875 C17.54984375 53.785625 17.7715625 54.38375 18 55 C17.67 55.66 17.34 56.32 17 57 C10.15823199 44.40823548 5.69381637 31.28610107 2.125 17.4375 C1.909646 16.61701172 1.69429199 15.79652344 1.47241211 14.95117188 C0.21091055 9.8320351 -0.20528772 5.27106411 0 0 Z " fill="#3E3FD8" transform="translate(18,253)"/>
<path d="M0 0 C0.66 0.33 1.32 0.66 2 1 C1.32453125 1.49628906 0.6490625 1.99257812 -0.046875 2.50390625 C-7.68062008 7.99599862 -7.68062008 7.99599862 -12 16 C-13.13476968 24.6951816 -13.13476968 24.6951816 -10 32.5625 C-3.86468786 37.54744111 2.26891767 39.63990218 10 41 C10 41.33 10 41.66 10 42 C2.22821319 42.89674463 -3.51249637 40.21353329 -10 36 C-13.81790387 32.1636966 -15.15386631 27.63090305 -15.3125 22.3125 C-15.19755065 15.71249163 -13.4325174 11.47572375 -8.80078125 6.76171875 C-2.99331683 1.49665842 -2.99331683 1.49665842 0 0 Z " fill="#3567F3" transform="translate(216,156)"/>
<path d="M0 0 C0.99 0.66 1.98 1.32 3 2 C-6.13121937 13.65639608 -16.73622234 26.95361812 -30 34 C-29.8125 32.1875 -29.8125 32.1875 -29 30 C-27.89785156 29.36578125 -27.89785156 29.36578125 -26.7734375 28.71875 C-23.46138781 26.66621216 -21.35561934 24.25574704 -18.8125 21.3125 C-17.24921996 19.50547015 -15.6540606 17.72432158 -14 16 C-13.34 16 -12.68 16 -12 16 C-11.7525 15.4225 -11.505 14.845 -11.25 14.25 C-9.26383409 10.67490136 -6.57182524 8.42554437 -3.3125 6 C-0.92316499 3.9335481 -0.32919764 3.07251127 0 0 Z " fill="#735DF3" transform="translate(488,353)"/>
<path d="M0 0 C0.66 0.33 1.32 0.66 2 1 C2.05437607 2.58294782 2.09296271 4.16644256 2.125 5.75 C2.14820313 6.63171875 2.17140625 7.5134375 2.1953125 8.421875 C1.99139502 11.1135858 1.36551721 12.69904974 0 15 C-0.66 15 -1.32 15 -2 15 C-2.16822266 16.32064453 -2.16822266 16.32064453 -2.33984375 17.66796875 C-4.19025643 27.00762567 -10.52480275 34.34402313 -17 41 C-17 37.12795524 -15.84706591 36.41564351 -13.3125 33.5625 C-6.28248337 24.99233838 -2.20258212 14.03739753 -1 3 C-1.66 2.34 -2.32 1.68 -3 1 C-2.01 0.67 -1.02 0.34 0 0 Z " fill="#3982F9" transform="translate(424,93)"/>
<path d="M0 0 C6.08743355 1.47514545 10.40588818 4.91984007 15.3125 8.625 C16.15466064 9.25293457 16.99682129 9.88086914 17.86450195 10.52783203 C23.49317152 14.76120271 28.93198123 19.09939326 34 24 C33.01 24.495 33.01 24.495 32 25 C31.01 24.67 30.02 24.34 29 24 C29 23.34 29 22.68 29 22 C28.43410156 21.74089844 27.86820312 21.48179688 27.28515625 21.21484375 C24.77292595 19.879282 22.67271763 18.32117377 20.4375 16.5625 C19.67308594 15.96566406 18.90867187 15.36882812 18.12109375 14.75390625 C16 13 16 13 14.41015625 11.33984375 C12.925478 9.73948929 12.925478 9.73948929 10 9 C10 8.34 10 7.68 10 7 C7.78877592 5.85343936 5.670069 4.88490779 3.3125 4.0625 C2.549375 3.711875 1.78625 3.36125 1 3 C0.67 2.01 0.34 1.02 0 0 Z " fill="#419EFB" transform="translate(430,53)"/>
<path d="M0 0 C-0.89460938 0.4846875 -1.78921875 0.969375 -2.7109375 1.46875 C-10.411106 5.71137301 -17.2849239 10.28197456 -24 16 C-26.91666437 18.38872216 -29.54568699 20.46474977 -33 22 C-33 19 -33 19 -31.609375 17.46484375 C-30.99578125 16.96082031 -30.3821875 16.45679688 -29.75 15.9375 C-29.14671875 15.43089844 -28.5434375 14.92429687 -27.921875 14.40234375 C-26 13 -26 13 -23.890625 12.00390625 C-21.6671579 11.01503147 -21.6671579 11.01503147 -20 8 C-14.66666667 5 -14.66666667 5 -12 5 C-12 4.34 -12 3.68 -12 3 C-11.01 3 -10.02 3 -9 3 C-8.67 2.01 -8.34 1.02 -8 0 C-2.25 -1.125 -2.25 -1.125 0 0 Z " fill="#4E3CDF" transform="translate(148,313)"/>
<path d="M0 0 C3.87365665 -0.05038777 7.7471799 -0.08617252 11.62109375 -0.10986328 C13.5677768 -0.12456776 15.51436947 -0.15001202 17.4609375 -0.17578125 C26.1937614 -0.22033647 34.39829323 0.52280466 43 2 C42.34 2.66 41.68 3.32 41 4 C38.87618692 3.79692624 36.75267977 3.58070401 34.63867188 3.29296875 C30.017597 2.77989604 25.39305822 2.93708593 20.75 3 C18.82818291 3.02562423 16.90629728 3.04661634 14.984375 3.0625 C14.14616211 3.07410156 13.30794922 3.08570313 12.44433594 3.09765625 C10 3 10 3 7.31347656 2.43359375 C4.98457746 1.75590895 4.98457746 1.75590895 3 3 C2.01 2.67 1.02 2.34 0 2 C0 1.34 0 0.68 0 0 Z " fill="#3E6CF5" transform="translate(309,198)"/>
<path d="M0 0 C-1 3 -1 3 -3 4 C-3.433125 4.7425 -3.86625 5.485 -4.3125 6.25 C-6.21385649 9.34850688 -8.39938043 11.45848542 -11 14 C-12.17310094 15.36951462 -13.33939027 16.74488364 -14.5 18.125 C-17.0715678 21.10734341 -19.40718056 23.25802694 -23 25 C-21.64891034 22.03674056 -20.11293352 19.79214835 -17.9375 17.375 C-17.32261719 16.68792969 -16.70773438 16.00085938 -16.07421875 15.29296875 C-15.38972656 14.53628906 -14.70523438 13.77960938 -14 13 C-13.22269531 12.12988281 -12.44539063 11.25976562 -11.64453125 10.36328125 C-9.43958429 7.89935193 -7.23407007 5.43756095 -5 3 C-4.45859375 2.40832031 -3.9171875 1.81664063 -3.359375 1.20703125 C-2 0 -2 0 0 0 Z " fill="#4692F8" transform="translate(81,81)"/>
<path d="M0 0 C0.66 0.33 1.32 0.66 2 1 C-4.15723907 5.05867711 -10.45368226 8.19820952 -17.1875 11.1875 C-18.15880859 11.62513672 -19.13011719 12.06277344 -20.13085938 12.51367188 C-22.74865658 13.68889954 -25.3669128 14.85943975 -28 16 C-29.32124878 16.57488159 -29.32124878 16.57488159 -30.66918945 17.16137695 C-33.28319016 18.10189151 -34.4356544 17.94975763 -37 17 C-34.69 16.34 -32.38 15.68 -30 15 C-30 14.34 -30 13.68 -30 13 C-27.60010241 11.97147246 -25.42030161 11.06198693 -22.828125 10.6796875 C-18.88114073 9.73110288 -15.52857891 7.92222464 -11.9375 6.0625 C-11.23044922 5.70220703 -10.52339844 5.34191406 -9.79492188 4.97070312 C-7.05312716 3.57277399 -4.31987468 2.17759105 -1.62890625 0.68359375 C-1.09136719 0.45800781 -0.55382812 0.23242188 0 0 Z " fill="#674EEA" transform="translate(422,409)"/>
<path d="M0 0 C4.64080887 2.09691569 7.73327953 5.32828506 11.3125 8.875 C12.29959961 9.81279297 12.29959961 9.81279297 13.30664062 10.76953125 C13.92345703 11.37925781 14.54027344 11.98898438 15.17578125 12.6171875 C15.74208252 13.17003418 16.30838379 13.72288086 16.8918457 14.29248047 C18 16 18 16 17.67651367 18.21142578 C17.45326416 18.80165527 17.23001465 19.39188477 17 20 C16.4225 19.2575 15.845 18.515 15.25 17.75 C12.40373709 14.27123423 9.74502817 11.49668544 6 9 C6 8.34 6 7.68 6 7 C5.38125 6.71125 4.7625 6.4225 4.125 6.125 C2 5 2 5 0 3 C0 2.01 0 1.02 0 0 Z " fill="#4995FA" transform="translate(464,78)"/>
<path d="M0 0 C9.45829554 2.55629609 17.04636137 7.66131727 24.1875 14.1875 C24.76443604 14.71069824 25.34137207 15.23389648 25.93579102 15.77294922 C27.35590443 17.11604904 28.68630703 18.55264034 30 20 C30 20.99 30 21.98 30 23 C29.59652344 22.53851563 29.19304687 22.07703125 28.77734375 21.6015625 C24.41979382 16.92020313 19.73301638 13.22307633 14.4375 9.6875 C13.81286865 9.26742676 13.1882373 8.84735352 12.54467773 8.41455078 C8.50533555 5.77676443 4.48305132 3.78283508 0 2 C0 1.34 0 0.68 0 0 Z " fill="#4B5AF3" transform="translate(384,209)"/>
<path d="M0 0 C1.09731445 0.00676758 1.09731445 0.00676758 2.21679688 0.01367188 C3.99873419 0.02531852 5.78062863 0.04324809 7.5625 0.0625 C6.546875 1.55859375 6.546875 1.55859375 4.5625 3.0625 C1.9025527 3.22947907 -0.54168798 3.25294529 -3.1875 3.125 C-8.75298214 2.88099099 -13.04106545 3.37569418 -18.4375 5.0625 C-20.875 4.6875 -20.875 4.6875 -22.4375 4.0625 C-20.1275 3.4025 -17.8175 2.7425 -15.4375 2.0625 C-15.4375 1.7325 -15.4375 1.4025 -15.4375 1.0625 C-10.23576905 0.19440561 -5.26771184 -0.06265348 0 0 Z " fill="#5BC3FE" transform="translate(238.4375,13.9375)"/>
<path d="M0 0 C0.66 0.33 1.32 0.66 2 1 C0.9171875 1.8353125 0.9171875 1.8353125 -0.1875 2.6875 C-2.99369826 4.88559009 -2.99369826 4.88559009 -5.125 7.3125 C-9.26780561 11.18512263 -13.91616327 14.46595135 -19 17 C-19.99 16.67 -20.98 16.34 -22 16 C-20.98679687 15.41992188 -20.98679687 15.41992188 -19.953125 14.828125 C-19.06109375 14.30734375 -18.1690625 13.7865625 -17.25 13.25 C-16.36828125 12.73953125 -15.4865625 12.2290625 -14.578125 11.703125 C-12.01824551 10.01205309 -10.12763247 8.19626577 -8 6 C-6.6044133 4.8896427 -5.18815171 3.80464459 -3.75 2.75 C-3.04359375 2.22921875 -2.3371875 1.7084375 -1.609375 1.171875 C-1.07828125 0.78515625 -0.5471875 0.3984375 0 0 Z " fill="#785FF4" transform="translate(448,391)"/>
<path d="M0 0 C8.58 0 17.16 0 26 0 C25.67 0.99 25.34 1.98 25 3 C16.41922945 3.24911914 8.41826913 2.69882188 0 1 C0 0.67 0 0.34 0 0 Z " fill="#7554F3" transform="translate(269,444)"/>
<path d="M0 0 C0.33 0 0.66 0 1 0 C1.34029508 3.47852168 1.6709387 6.95789909 2 10.4375 C2.14308594 11.89833008 2.14308594 11.89833008 2.2890625 13.38867188 C2.84174098 19.29048849 3.09807559 25.07255678 3 31 C2.01 31 1.02 31 0 31 C0 20.77 0 10.54 0 0 Z " fill="#7A74FC" transform="translate(533,215)"/>
<path d="M0 0 C2.02772181 5.40725815 0.09463171 11.52684144 -1 17 C-1.36481351 19.66363834 -1.68322178 22.33001218 -2 25 C-2.66 25 -3.32 25 -4 25 C-2.64974619 2.64974619 -2.64974619 2.64974619 0 0 Z " fill="#3764E9" transform="translate(20,184)"/>
<path d="M0 0 C-3.97474632 2.18000271 -8.06813681 3.12691611 -12.44140625 4.21875 C-15.20374481 4.92816668 -15.20374481 4.92816668 -18 7 C-19.9896995 7.39013716 -21.99019869 7.73202649 -24 8 C-18.33235464 1.4360117 -8.46022335 -0.78699752 0 0 Z " fill="#3F25BF" transform="translate(125,364)"/>
<path d="M0 0 C0.33 0.66 0.66 1.32 1 2 C2.65 2 4.3 2 6 2 C6 2.66 6 3.32 6 4 C8.97 4.33 11.94 4.66 15 5 C15 5.33 15 5.66 15 6 C9.58500559 6.11521265 4.37084106 5.68201156 -1 5 C-1 4.34 -1 3.68 -1 3 C-2.65 2.67 -4.3 2.34 -6 2 C-6 1.67 -6 1.34 -6 1 C-4.02 0.67 -2.04 0.34 0 0 Z " fill="#5438D9" transform="translate(198,434)"/>
<path d="M0 0 C0.66 0.33 1.32 0.66 2 1 C2.08153933 2.58246707 2.13943557 4.16616273 2.1875 5.75 C2.22230469 6.63171875 2.25710938 7.5134375 2.29296875 8.421875 C1.94923684 11.44671583 0.99772541 12.75583602 -1 15 C-1.72171548 11.63199444 -2.02938976 9.16980752 -1.4375 5.75 C-1.293125 4.8425 -1.14875 3.935 -1 3 C-1.66 2.34 -2.32 1.68 -3 1 C-2.01 0.67 -1.02 0.34 0 0 Z " fill="#4999FC" transform="translate(424,93)"/>
<path d="M0 0 C1.75100219 3.50200438 0.03082434 7.30652527 -0.8125 11 C-0.99103516 11.83273437 -1.16957031 12.66546875 -1.35351562 13.5234375 C-1.53205078 14.32007813 -1.71058594 15.11671875 -1.89453125 15.9375 C-2.05800049 16.66839844 -2.22146973 17.39929688 -2.38989258 18.15234375 C-3 20 -3 20 -5 22 C-5.19705341 11.95027624 -5.19705341 11.95027624 -4 8 C-3.34 7.34 -2.68 6.68 -2 6 C-1.28591666 4.01643517 -0.61382258 2.01684563 0 0 Z " fill="#5534DE" transform="translate(57,411)"/>
<path d="M0 0 C-2.2034806 1.1560727 -4.41203156 2.29984721 -6.625 3.4375 C-7.24246094 3.76298828 -7.85992187 4.08847656 -8.49609375 4.42382812 C-12.33285611 6.38259628 -15.71743908 7.53221258 -20 8 C-16.29318258 4.89428811 -13.9778821 3 -9 3 C-8.67 2.34 -8.34 1.68 -8 1 C-2.47058824 -1.23529412 -2.47058824 -1.23529412 0 0 Z " fill="#4C30D0" transform="translate(138,441)"/>
<path d="M0 0 C0 0.66 0 1.32 0 2 C-1.93144988 2.72466802 -3.87043949 3.42926777 -5.8125 4.125 C-6.89144531 4.51945312 -7.97039062 4.91390625 -9.08203125 5.3203125 C-10.04496094 5.54460937 -11.00789062 5.76890625 -12 6 C-12.99 5.34 -13.98 4.68 -15 4 C-13.58521865 3.35004703 -12.16808513 2.70521278 -10.75 2.0625 C-9.96109375 1.70285156 -9.1721875 1.34320313 -8.359375 0.97265625 C-2.71143376 -1.35571688 -2.71143376 -1.35571688 0 0 Z " fill="#479CFC" transform="translate(207,100)"/>
<path d="M0 0 C0.33 0.99 0.66 1.98 1 3 C-1.65775809 7.39629158 -5.42323703 10.71161852 -10 13 C-8.56501627 9.79111679 -6.78256013 7.42193016 -4.4375 4.8125 C-3.81746094 4.11769531 -3.19742188 3.42289062 -2.55859375 2.70703125 C-1.72141231 1.79011824 -0.8779528 0.8779528 0 0 Z " fill="#3B8BF7" transform="translate(68,93)"/>
<path d="M0 0 C0.66 0.33 1.32 0.66 2 1 C1.67 1.99 1.34 2.98 1 4 C-3.5875989 5.6515356 -8.17202681 6.40881961 -13 7 C-9.13996235 3.96711327 -5.76025864 2.14902795 -1 1 C-0.67 0.67 -0.34 0.34 0 0 Z " fill="#5D3DE5" transform="translate(144,435)"/>
<path d="M0 0 C0.66 -0.02578125 1.32 -0.0515625 2 -0.078125 C4 0.25 4 0.25 8 3.25 C2.72 3.25 -2.56 3.25 -8 3.25 C-8 2.59 -8 1.93 -8 1.25 C-5.34286645 0.36428882 -2.78089761 0.10376484 0 0 Z " fill="#61C6FE" transform="translate(295,11.75)"/>
<path d="M0 0 C0 3.96130371 -1.34877125 4.82914401 -4 7.6875 C-4.7425 8.49574219 -5.485 9.30398438 -6.25 10.13671875 C-6.8275 10.75160156 -7.405 11.36648438 -8 12 C-8.66 11.67 -9.32 11.34 -10 11 C-6.7 7.37 -3.4 3.74 0 0 Z M-12 13 C-12 13.99 -12 14.98 -12 16 C-12.66 15.67 -13.32 15.34 -14 15 C-13.34 14.34 -12.68 13.68 -12 13 Z " fill="#8167FE" transform="translate(404,346)"/>
<path d="M0 0 C0.99 0.99 1.98 1.98 3 3 C1.42274653 3.70133599 -0.16211333 4.385583 -1.75 5.0625 C-2.63171875 5.44535156 -3.5134375 5.82820313 -4.421875 6.22265625 C-7.15256309 7.04600008 -8.36901347 6.9773992 -11 6 C-8.69 5.34 -6.38 4.68 -4 4 C-4 3.34 -4 2.68 -4 2 C-2.68 1.34 -1.36 0.68 0 0 Z " fill="#7056F1" transform="translate(396,420)"/>
<path d="M0 0 C0.66 0 1.32 0 2 0 C0.35821735 4.77609498 -2.26546702 8.79382904 -5 13 C-5.66 12.01 -6.32 11.02 -7 10 C-5.88321917 8.3278148 -4.75633648 6.66237197 -3.625 5 C-2.99851562 4.071875 -2.37203125 3.14375 -1.7265625 2.1875 C-1.15679687 1.465625 -0.58703125 0.74375 0 0 Z " fill="#5B44EC" transform="translate(416,313)"/>
<path d="M0 0 C2 2 2 2 2.1953125 3.9453125 C2.13020833 5.96354167 2.06510417 7.98177083 2 10 C2.66 10 3.32 10 4 10 C4.33 11.32 4.66 12.64 5 14 C4.34 13.67 3.68 13.34 3 13 C3 12.34 3 11.68 3 11 C2.34 11 1.68 11 1 11 C-1.42857143 3.57142857 -1.42857143 3.57142857 0 0 Z " fill="#4C49E8" transform="translate(25,279)"/>
<path d="M0 0 C-4.64203897 2.53309233 -8.65155992 4.46515599 -14 5 C-9.75346963 1.25306144 -5.73335007 -1.91111669 0 0 Z " fill="#4B2DC5" transform="translate(84,464)"/>
<path d="M0 0 C0.66 0.33 1.32 0.66 2 1 C-0.19471406 5.51135667 -2.41173718 7.06273348 -7 9 C-7 6 -7 6 -5.46875 4.39453125 C-4.49421875 3.61142578 -4.49421875 3.61142578 -3.5 2.8125 C-2.8503125 2.28269531 -2.200625 1.75289063 -1.53125 1.20703125 C-1.0259375 0.80871094 -0.520625 0.41039062 0 0 Z " fill="#5943EB" transform="translate(122,326)"/>
<path d="M0 0 C-0.625 2.4375 -0.625 2.4375 -2 5 C-5.125 5.8125 -5.125 5.8125 -8 6 C-8 5.01 -8 4.02 -8 3 C-2.25 0 -2.25 0 0 0 Z " fill="#5A3DE4" transform="translate(380,347)"/>
<path d="M0 0 C0.99 0.33 1.98 0.66 3 1 C0.36 3.97 -2.28 6.94 -5 10 C-5 5.63755776 -3.03368793 3.03368793 0 0 Z " fill="#3C87F7" transform="translate(163,124)"/>
<path d="M0 0 C4.28806873 0.47645208 6.26647487 1.65902484 9 5 C9 5.66 9 6.32 9 7 C5.18315774 5.44499019 2.80804268 2.96404505 0 0 Z " fill="#4DA3FC" transform="translate(446,65)"/>
<path d="M0 0 C0 0.33 0 0.66 0 1 C-1.27875 1.144375 -2.5575 1.28875 -3.875 1.4375 C-6.25692894 1.70642746 -7.84452691 1.92226346 -10 3 C-12.69565202 2.83219837 -15.32405554 2.38844355 -18 2 C-18 1.67 -18 1.34 -18 1 C-12.03325384 -0.32594359 -6.07416385 -0.0884587 0 0 Z " fill="#5E38F1" transform="translate(335,362)"/>
<path d="M0 0 C3.63 0 7.26 0 11 0 C7.99559979 2.00293347 6.29006055 2.49271626 2.8125 3.125 C1.46091797 3.37636719 1.46091797 3.37636719 0.08203125 3.6328125 C-0.60503906 3.75398438 -1.29210937 3.87515625 -2 4 C-1.34 2.68 -0.68 1.36 0 0 Z " fill="#3E91F8" transform="translate(210,97)"/>
<path d="M0 0 C4.10899581 1.12795963 8.07561214 2.33510818 12 4 C11.67 5.32 11.34 6.64 11 8 C10.649375 7.566875 10.29875 7.13375 9.9375 6.6875 C7.27372911 4.36744148 4.23212486 3.37664577 1 2 C0.67 1.34 0.34 0.68 0 0 Z " fill="#53B1FD" transform="translate(419,48)"/>
<path d="M0 0 C2.97 0 5.94 0 9 0 C9 0.33 9 0.66 9 1 C7.08654673 1.53251766 5.1690705 2.05059483 3.25 2.5625 C2.18265625 2.85253906 1.1153125 3.14257812 0.015625 3.44140625 C-2.84335927 3.97098494 -4.31597383 3.98370862 -7 3 C-4.69 2.34 -2.38 1.68 0 1 C0 0.67 0 0.34 0 0 Z " fill="#50BDFC" transform="translate(223,15)"/>
<path d="M0 0 C-2.6598561 3.44216672 -5.90288286 3.99504674 -10 5 C-10.33 4.34 -10.66 3.68 -11 3 C-10.01 3 -9.02 3 -8 3 C-8 2.34 -8 1.68 -8 1 C-3.375 -1.125 -3.375 -1.125 0 0 Z " fill="#563AD9" transform="translate(94,459)"/>
<path d="M0 0 C3.21852831 0.63065757 5.50801069 1.78020695 8.25 3.5625 C8.95640625 4.01753906 9.6628125 4.47257812 10.390625 4.94140625 C11.18726563 5.46541016 11.18726563 5.46541016 12 6 C9.14397493 6 7.51615684 5.6377317 4.875 4.6875 C4.17117188 4.44386719 3.46734375 4.20023438 2.7421875 3.94921875 C1 3 1 3 0 0 Z " fill="#439DFB" transform="translate(414,44)"/>
<path d="M0 0 C0.66 0.66 1.32 1.32 2 2 C0.35 3.65 -1.3 5.3 -3 7 C-3.33 6.34 -3.66 5.68 -4 5 C-2.68 3.35 -1.36 1.7 0 0 Z M-5 7 C-4.34 7.33 -3.68 7.66 -3 8 C-3.99 8.66 -4.98 9.32 -6 10 C-5.67 9.01 -5.34 8.02 -5 7 Z " fill="#4C8FFE" transform="translate(55,111)"/>
<path d="M0 0 C0.66 0.33 1.32 0.66 2 1 C-1.17320782 4.53586014 -3.16743695 6.58578031 -8 7 C-7.67 5.68 -7.34 4.36 -7 3 C-6.401875 2.87625 -5.80375 2.7525 -5.1875 2.625 C-2.73768652 2.04524015 -2.73768652 2.04524015 0 0 Z " fill="#55ACFE" transform="translate(109,59)"/>
<path d="M0 0 C-0.5625 1.9375 -0.5625 1.9375 -2 4 C-5.625 4.75 -5.625 4.75 -9 5 C-4.32258065 0 -4.32258065 0 0 0 Z " fill="#472ED1" transform="translate(110,367)"/>
<path d="M0 0 C0.66 0.99 1.32 1.98 2 3 C0.02 4.32 -1.96 5.64 -4 7 C-4 4 -4 4 -2 1.8125 C-1.34 1.214375 -0.68 0.61625 0 0 Z " fill="#8B71FB" transform="translate(481,362)"/>
<path d="M0 0 C1.875 0.5625 1.875 0.5625 4 2 C5.25 5.625 5.25 5.625 6 9 C0.42857143 3.85714286 0.42857143 3.85714286 0 0 Z " fill="#4735D5" transform="translate(49,332)"/>
<path d="M0 0 C-3 2 -3 2 -5 2 C-5 2.66 -5 3.32 -5 4 C-6.65 4 -8.3 4 -10 4 C-6.66064924 0.50886057 -4.84725717 -0.1275594 0 0 Z " fill="#3175F4" transform="translate(229,152)"/>
<path d="M0 0 C0 3 0 3 -2 5.1875 C-2.66 5.785625 -3.32 6.38375 -4 7 C-4.66 6.67 -5.32 6.34 -6 6 C-5 3 -5 3 -3 1.875 C-2.34 1.58625 -1.68 1.2975 -1 1 C-0.67 0.67 -0.34 0.34 0 0 Z " fill="#518FFE" transform="translate(410,130)"/>
<path d="M0 0 C0.66 0.99 1.32 1.98 2 3 C-0.91765 4.9451 -2.62537285 5.45276317 -6 6 C-4 4 -2 2 0 0 Z " fill="#876CFA" transform="translate(456,385)"/>
<path d="M0 0 C3 1 3 1 3 1 Z " fill="#D42AFF" transform="translate(308,446)"/>
<path d="" fill="#D4D4FF" transform="translate(0,0)"/>
<path d="M0 0 C3 1 3 1 3 1 Z " fill="#2AD4FF" transform="translate(263,96)"/>
<path d="M0 0 C3 1 3 1 3 1 Z " fill="#55AAFF" transform="translate(259,96)"/>
<path d="M0 0 C3 1 3 1 3 1 Z " fill="#00FFFF" transform="translate(255,96)"/>
<path d="M0 0 C3 1 3 1 3 1 Z " fill="#7788FF" transform="translate(247,96)"/>
<path d="M0 0 C0.66 0.66 1.32 1.32 2 2 C1.34 2 0.68 2 0 2 C0 1.34 0 0.68 0 0 Z " fill="#55E9FF" transform="translate(199,17)"/>
<path d="M0 0 C3 1 3 1 3 1 Z " fill="#1CE2FF" transform="translate(344,17)"/>
<path d="M0 0 C2 1 2 1 2 1 Z " fill="#8080FF" transform="translate(283,448)"/>
<path d="M0 0 C2 1 2 1 2 1 Z " fill="#0000FF" transform="translate(279,448)"/>
<path d="M0 0 C2 1 2 1 2 1 Z " fill="#4040FF" transform="translate(263,448)"/>
<path d="" fill="#FFFFFF" transform="translate(0,0)"/>
<path d="" fill="#4040FF" transform="translate(0,0)"/>
<path d="" fill="#00FFFF" transform="translate(0,0)"/>
<path d="" fill="#36C8FF" transform="translate(0,0)"/>
<path d="M0 0 C2 1 2 1 2 1 Z " fill="#40BFFF" transform="translate(487,99)"/>
<path d="" fill="#00FFFF" transform="translate(0,0)"/>
<path d="M0 0 C2 1 2 1 2 1 Z " fill="#40BFFF" transform="translate(251,96)"/>
<path d="M0 0 C2 1 2 1 2 1 Z " fill="#40BFFF" transform="translate(240,96)"/>
<path d="M0 0 C2 1 2 1 2 1 Z " fill="#00FFFF" transform="translate(417,43)"/>
<path d="M0 0 C2 1 2 1 2 1 Z " fill="#2AD4FF" transform="translate(415,42)"/>
<path d="M0 0 C2 1 2 1 2 1 Z " fill="#40FFFF" transform="translate(173,25)"/>
<path d="M0 0 C2 1 2 1 2 1 Z " fill="#2AD4FF" transform="translate(293,10)"/>
<path d="M0 0 C2 1 2 1 2 1 Z " fill="#40FFFF" transform="translate(289,10)"/>
<path d="M0 0 C2 1 2 1 2 1 Z " fill="#40DFFF" transform="translate(284,10)"/>
<path d="M0 0 C2 1 2 1 2 1 Z " fill="#40FFFF" transform="translate(279,10)"/>
<path d="M0 0 C2 1 2 1 2 1 Z " fill="#00FFFF" transform="translate(255,10)"/>
<path d="" fill="#0000FF" transform="translate(0,0)"/>
<path d="" fill="#0000FF" transform="translate(0,0)"/>
<path d="" fill="#FF00FF" transform="translate(0,0)"/>
<path d="" fill="#FF00FF" transform="translate(0,0)"/>
<path d="" fill="#FF00FF" transform="translate(0,0)"/>
<path d="" fill="#FF00FF" transform="translate(0,0)"/>
<path d="" fill="#0000FF" transform="translate(0,0)"/>
<path d="" fill="#0000FF" transform="translate(0,0)"/>
<path d="" fill="#FF00FF" transform="translate(0,0)"/>
<path d="" fill="#0000FF" transform="translate(0,0)"/>
<path d="" fill="#8080FF" transform="translate(0,0)"/>
<path d="" fill="#8080FF" transform="translate(0,0)"/>
<path d="" fill="#0000FF" transform="translate(0,0)"/>
<path d="" fill="#FF00FF" transform="translate(0,0)"/>
<path d="" fill="#FF00FF" transform="translate(0,0)"/>
<path d="" fill="#0000FF" transform="translate(0,0)"/>
<path d="" fill="#0000FF" transform="translate(0,0)"/>
<path d="" fill="#FF00FF" transform="translate(0,0)"/>
<path d="" fill="#8080FF" transform="translate(0,0)"/>
<path d="" fill="#0000FF" transform="translate(0,0)"/>
<path d="" fill="#0000FF" transform="translate(0,0)"/>
<path d="" fill="#0000FF" transform="translate(0,0)"/>
<path d="" fill="#8080FF" transform="translate(0,0)"/>
<path d="" fill="#0000FF" transform="translate(0,0)"/>
<path d="" fill="#0000FF" transform="translate(0,0)"/>
<path d="" fill="#8080FF" transform="translate(0,0)"/>
<path d="" fill="#0000FF" transform="translate(0,0)"/>
<path d="" fill="#FFFFFF" transform="translate(0,0)"/>
<path d="" fill="#0000FF" transform="translate(0,0)"/>
<path d="" fill="#8080FF" transform="translate(0,0)"/>
<path d="" fill="#0000FF" transform="translate(0,0)"/>
<path d="" fill="#0000FF" transform="translate(0,0)"/>
<path d="" fill="#0000FF" transform="translate(0,0)"/>
<path d="" fill="#FFFFFF" transform="translate(0,0)"/>
<path d="" fill="#5555FF" transform="translate(0,0)"/>
<path d="" fill="#0000FF" transform="translate(0,0)"/>
<path d="" fill="#8080FF" transform="translate(0,0)"/>
<path d="" fill="#0000FF" transform="translate(0,0)"/>
<path d="" fill="#0000FF" transform="translate(0,0)"/>
<path d="" fill="#0000FF" transform="translate(0,0)"/>
<path d="" fill="#0000FF" transform="translate(0,0)"/>
<path d="" fill="#FFFFFF" transform="translate(0,0)"/>
<path d="" fill="#0000FF" transform="translate(0,0)"/>
<path d="" fill="#8080FF" transform="translate(0,0)"/>
<path d="" fill="#0000FF" transform="translate(0,0)"/>
<path d="" fill="#8080FF" transform="translate(0,0)"/>
<path d="" fill="#FFFFFF" transform="translate(0,0)"/>
<path d="" fill="#8080FF" transform="translate(0,0)"/>
<path d="" fill="#0000FF" transform="translate(0,0)"/>
<path d="" fill="#55AAFF" transform="translate(0,0)"/>
<path d="" fill="#FFFFFF" transform="translate(0,0)"/>
<path d="" fill="#FFFFFF" transform="translate(0,0)"/>
<path d="" fill="#00FFFF" transform="translate(0,0)"/>
<path d="" fill="#00FFFF" transform="translate(0,0)"/>
<path d="" fill="#0000FF" transform="translate(0,0)"/>
<path d="" fill="#0000FF" transform="translate(0,0)"/>
<path d="" fill="#0000FF" transform="translate(0,0)"/>
<path d="" fill="#0000FF" transform="translate(0,0)"/>
<path d="" fill="#00FFFF" transform="translate(0,0)"/>
<path d="" fill="#00FFFF" transform="translate(0,0)"/>
<path d="" fill="#55AAFF" transform="translate(0,0)"/>
<path d="" fill="#00FFFF" transform="translate(0,0)"/>
<path d="" fill="#00FFFF" transform="translate(0,0)"/>
<path d="" fill="#00FFFF" transform="translate(0,0)"/>
<path d="" fill="#00FFFF" transform="translate(0,0)"/>
<path d="" fill="#00FFFF" transform="translate(0,0)"/>
<path d="" fill="#00FFFF" transform="translate(0,0)"/>
<path d="" fill="#8080FF" transform="translate(0,0)"/>
<path d="" fill="#8080FF" transform="translate(0,0)"/>
<path d="" fill="#00FFFF" transform="translate(0,0)"/>
<path d="" fill="#00FFFF" transform="translate(0,0)"/>
<path d="" fill="#00FFFF" transform="translate(0,0)"/>
<path d="" fill="#8080FF" transform="translate(0,0)"/>
<path d="" fill="#6699FF" transform="translate(0,0)"/>
<path d="" fill="#00FFFF" transform="translate(0,0)"/>
<path d="" fill="#00FFFF" transform="translate(0,0)"/>
<path d="" fill="#00FFFF" transform="translate(0,0)"/>
<path d="" fill="#8080FF" transform="translate(0,0)"/>
<path d="" fill="#00FFFF" transform="translate(0,0)"/>
<path d="" fill="#00FFFF" transform="translate(0,0)"/>
<path d="" fill="#8080FF" transform="translate(0,0)"/>
<path d="" fill="#00FFFF" transform="translate(0,0)"/>
<path d="" fill="#00FFFF" transform="translate(0,0)"/>
<path d="" fill="#8080FF" transform="translate(0,0)"/>
<path d="" fill="#8080FF" transform="translate(0,0)"/>
<path d="" fill="#00FFFF" transform="translate(0,0)"/>
<path d="" fill="#8080FF" transform="translate(0,0)"/>
<path d="" fill="#8080FF" transform="translate(0,0)"/>
<path d="" fill="#80BFFF" transform="translate(0,0)"/>
<path d="" fill="#00FFFF" transform="translate(0,0)"/>
<path d="" fill="#80FFFF" transform="translate(0,0)"/>
<path d="" fill="#80FFFF" transform="translate(0,0)"/>
<path d="" fill="#55AAFF" transform="translate(0,0)"/>
<path d="" fill="#00FFFF" transform="translate(0,0)"/>
<path d="" fill="#00FFFF" transform="translate(0,0)"/>
<path d="" fill="#00FFFF" transform="translate(0,0)"/>
<path d="" fill="#00FFFF" transform="translate(0,0)"/>
<path d="" fill="#00FFFF" transform="translate(0,0)"/>
<path d="" fill="#80FFFF" transform="translate(0,0)"/>
<path d="" fill="#00FFFF" transform="translate(0,0)"/>
<path d="" fill="#80FFFF" transform="translate(0,0)"/>
<path d="" fill="#00FFFF" transform="translate(0,0)"/>
<path d="" fill="#00FFFF" transform="translate(0,0)"/>
<path d="" fill="#80BFFF" transform="translate(0,0)"/>
<path d="" fill="#00FFFF" transform="translate(0,0)"/>
<path d="" fill="#00FFFF" transform="translate(0,0)"/>
</svg>
